<svg width="200" height="200" viewBox="0 0 200 200" fill="none" xmlns="http://www.w3.org/2000/svg">
<g clip-path="url(#clip0_4066_62)">
<rect width="200" height="200" rx="100" transform="matrix(1 0 0 -1 0 200)" fill="#073920"/>
<path d="M103.5 82.5L140.5 113.25L116 113.25L99 113.25L103.5 82.5Z" fill="black" fill-opacity="0.4"/>
<path d="M149.5 106.9H179.25H202V123.864V140.9H130L149.5 106.9Z" fill="black" fill-opacity="0.4"/>
<path d="M133 56.5L200 106.89H179H149.5L144 76.3896L135.5 66.3896L133 56.5Z" fill="black" fill-opacity="0.4"/>
<path d="M38 157L73 142L99.5 146.5L127.5 142V200H38V191.077H52.5L38 157Z" fill="black" fill-opacity="0.4"/>
<path d="M83 113.266L141.5 113.266L133.5 131L117 142L83 113.266Z" fill="black" fill-opacity="0.4"/>
<path d="M127.5 140.9L160.5 140.899L199.5 140.9V200H127.5V172.394V140.9Z" fill="black" fill-opacity="0.4"/>
<path d="M100.144 103.879L88.779 94.4279L111.275 94.3459L100.144 103.879Z" fill="white"/>
<rect x="97" y="82" width="6.49849" height="12.781" fill="white"/>
<path d="M147.692 84.9844C143.71 72.3357 134.866 61.787 123.106 55.659L119.587 62.4121C129.556 67.6069 137.053 76.549 140.429 87.2713L147.692 84.9844Z" fill="black" fill-opacity="0.4"/>
<path d="M59.5137 120L44.4946 151.352L76.503 137.787" stroke="white" stroke-width="7"/>
<rect x="130" y="82" width="25" height="5" transform="rotate(-90 130 82)" fill="white"/>
<rect x="120" y="67" width="25" height="5" fill="white"/>
<rect x="83" y="107" width="34" height="6" fill="white"/>
<path d="M128.227 58.7298C118.753 52.2495 107.337 49.2266 95.8966 50.1687C84.4565 51.1107 73.689 55.9603 65.402 63.9032C57.1151 71.8461 51.8134 82.3984 50.3874 93.7883C48.9613 105.178 51.4977 116.712 57.5705 126.453L64.0325 122.424C58.8846 114.167 56.7345 104.39 57.9434 94.7343C59.1522 85.0791 63.6464 76.1339 70.6713 69.4007C77.6961 62.6676 86.8238 58.5565 96.5215 57.758C106.219 56.9594 115.896 59.5219 123.928 65.0153L128.227 58.7298Z" fill="white"/>
<path d="M70.7238 140.533C80.0298 147.254 91.3652 150.569 102.826 149.92C114.288 149.271 125.177 144.698 133.664 136.969C142.152 129.24 147.722 118.826 149.438 107.475C151.154 96.1246 148.913 84.5292 143.089 74.6363L136.527 78.4992C141.463 86.8854 143.363 96.7148 141.909 106.337C140.454 115.959 135.732 124.787 128.537 131.339C121.342 137.891 112.112 141.767 102.396 142.317C92.6803 142.867 83.0712 140.057 75.1826 134.36L70.7238 140.533Z" fill="white"/>
</g>
<defs>
<clipPath id="clip0_4066_62">
<rect width="200" height="200" rx="100" transform="matrix(1 0 0 -1 0 200)" fill="white"/>
</clipPath>
</defs>
</svg>
